<svg width="20" height="20" viewBox="0 0 20 20" fill="none" xmlns="http://www.w3.org/2000/svg">
<g clip-path="url(#clip0_68_1296)">
<path d="M15.7918 19.7917H2.12516C1.0835 19.7917 0.208496 18.9167 0.208496 17.875V9.75001C0.208496 8.70834 1.0835 7.83334 2.12516 7.83334H15.7918C16.8335 7.83334 17.7085 8.70834 17.7085 9.75001V17.8333C17.7085 18.9167 16.8335 19.7917 15.7918 19.7917ZM2.12516 8.66668C1.54183 8.66668 1.04183 9.16668 1.04183 9.75001V17.8333C1.04183 18.4167 1.54183 18.9167 2.12516 18.9167H15.7918C16.3752 18.9167 16.8752 18.4167 16.8752 17.8333V9.75001C16.8752 9.16668 16.3752 8.66668 15.7918 8.66668H2.12516Z" fill="#010101"/>
<path d="M6.95866 14.0417H2.41699V10.625H6.95866V14.0417ZM3.25033 13.2083H6.12533V11.4583H3.25033V13.2083Z" fill="#010101"/>
<path d="M15.0837 16.125H6.91699V16.9583H15.0837V16.125Z" fill="#010101"/>
<path d="M17.8753 12.1667H16.8753V9.79168C16.8753 9.20834 16.3753 8.70834 15.792 8.70834H2.29199V2.12501C2.29199 1.08334 3.16699 0.208344 4.20866 0.208344H17.8753C18.917 0.208344 19.792 1.08334 19.792 2.12501V10.2083C19.792 11.2917 18.917 12.1667 17.8753 12.1667ZM17.7087 11.3333H17.8753C18.4587 11.3333 18.9587 10.8333 18.9587 10.25V2.12501C18.9587 1.54168 18.4587 1.04168 17.8753 1.04168H4.20866C3.62533 1.04168 3.12533 1.54168 3.12533 2.12501V7.83334H15.792C16.8337 7.83334 17.7087 8.70834 17.7087 9.75001V11.3333Z" fill="#010101"/>
<path d="M19.3752 2.95834H2.7085V3.79168H19.3752V2.95834Z" fill="#010101"/>
</g>
<defs>
<clipPath id="clip0_68_1296">
<rect width="20" height="20" fill="white"/>
</clipPath>
</defs>
</svg>
