<svg width="24" height="25" viewBox="0 0 24 25" fill="none" xmlns="http://www.w3.org/2000/svg">
<path d="M12 3.5C16.9706 3.5 21 7.52944 21 12.5C21 17.4706 16.9706 21.5 12 21.5C7.02944 21.5 3 17.4706 3 12.5C3 7.52944 7.02944 3.5 12 3.5ZM15.1804 9.74597L10.8743 14.0636L8.78033 11.9697C8.48744 11.6768 8.01256 11.6768 7.71967 11.9697C7.42678 12.2626 7.42678 12.7374 7.71967 13.0303L10.3447 15.6553C10.6378 15.9485 11.1133 15.9482 11.406 15.6546L16.2425 10.8052C16.535 10.5119 16.5344 10.0371 16.2411 9.74455C15.9478 9.45205 15.4729 9.45269 15.1804 9.74597Z" fill="#08D51D"/>
</svg>
