<svg width="20" height="20" viewBox="0 0 20 20" fill="none" xmlns="http://www.w3.org/2000/svg">
<g clip-path="url(#clip0_68_1278)">
<path d="M10 19.707C15.361 19.707 19.707 15.361 19.707 10C19.707 4.63895 15.361 0.292969 10 0.292969C4.63895 0.292969 0.292969 4.63895 0.292969 10C0.292969 15.361 4.63895 19.707 10 19.707Z" fill="#4956FC"/>
<path d="M10 17.7539C14.2824 17.7539 17.7539 14.2824 17.7539 10C17.7539 5.71764 14.2824 2.24609 10 2.24609C5.71764 2.24609 2.24609 5.71764 2.24609 10C2.24609 14.2824 5.71764 17.7539 10 17.7539Z" fill="#5E8DF7"/>
<path d="M13.6484 9.53593L13.0414 9.88046L9.95508 11.0453L6.35156 9.53593L9.95508 3.36093L13.6484 9.53593Z" fill="#FEFEFE"/>
<path d="M13.6484 9.53594L9.95508 11.6313L6.35156 9.53594L9.95508 7.85352L13.6484 9.53594Z" fill="#C0CBF8"/>
<path d="M13.6484 11.0094L9.95508 16.6391L6.35156 11.0094L9.95508 13.1043L13.6484 11.0094Z" fill="#FEFEFE"/>
<path d="M13.6484 11.0094L9.95508 16.6391V13.1043L13.6484 11.0094ZM13.6484 9.53593L13.0414 9.88046L9.95508 8.11562V3.36093L13.6484 9.53593Z" fill="#C0CBF8"/>
<path d="M13.6484 9.53594L9.95508 11.6313V7.85352L13.6484 9.53594Z" fill="#8095F0"/>
<g clip-path="url(#clip1_68_1278)">
<path d="M10 20C15.5228 20 20 15.5228 20 10C20 4.47715 15.5228 0 10 0C4.47715 0 0 4.47715 0 10C0 15.5228 4.47715 20 10 20Z" fill="black"/>
<path d="M6.19932 12.3691C6.26862 12.2998 6.36391 12.2594 6.46497 12.2594H15.6296C15.797 12.2594 15.8808 12.4615 15.7624 12.5799L13.952 14.3903C13.8827 14.4596 13.7874 14.5 13.6863 14.5H4.52176C4.35429 14.5 4.27056 14.2979 4.38894 14.1795L6.19932 12.3691Z" fill="url(#paint0_linear_68_1278)"/>
<path d="M6.19932 5.60972C6.27151 5.54042 6.36679 5.5 6.46497 5.5H15.6296C15.797 5.5 15.8808 5.70212 15.7624 5.8205L13.952 7.6309C13.8827 7.7002 13.7874 7.74062 13.6863 7.74062H4.52176C4.35429 7.74062 4.27056 7.5385 4.38894 7.42012L6.19932 5.60972Z" fill="url(#paint1_linear_68_1278)"/>
<path d="M13.952 8.96775C13.8827 8.89847 13.7874 8.85803 13.6863 8.85803H4.52176C4.35429 8.85803 4.27056 9.06015 4.38894 9.17853L6.19932 10.9889C6.26862 11.0582 6.36391 11.0986 6.46497 11.0986H15.6296C15.797 11.0986 15.8808 10.8965 15.7624 10.7781L13.952 8.96775Z" fill="url(#paint2_linear_68_1278)"/>
</g>
</g>
<defs>
<linearGradient id="paint0_linear_68_1278" x1="-16.38" y1="3.79983" x2="-16.6238" y2="16.0697" gradientUnits="userSpaceOnUse">
<stop stop-color="#00FFA3"/>
<stop offset="1" stop-color="#DC1FFF"/>
</linearGradient>
<linearGradient id="paint1_linear_68_1278" x1="-19.1533" y1="2.35183" x2="-19.3972" y2="14.6218" gradientUnits="userSpaceOnUse">
<stop stop-color="#00FFA3"/>
<stop offset="1" stop-color="#DC1FFF"/>
</linearGradient>
<linearGradient id="paint2_linear_68_1278" x1="-17.7755" y1="3.07116" x2="-18.0193" y2="15.3412" gradientUnits="userSpaceOnUse">
<stop stop-color="#00FFA3"/>
<stop offset="1" stop-color="#DC1FFF"/>
</linearGradient>
<clipPath id="clip0_68_1278">
<rect width="20" height="20" fill="white"/>
</clipPath>
<clipPath id="clip1_68_1278">
<rect width="20" height="20" fill="white"/>
</clipPath>
</defs>
</svg>
