<svg width="260" height="62" viewBox="0 0 260 62" fill="none" xmlns="http://www.w3.org/2000/svg">
<path d="M30.7705 48.0838V61.1881H0.0859375V14.8203H14.6213V48.0838H30.7705Z" fill="black" fill-opacity="0.7"/>
<path d="M30.7704 14.8203H17.1328V46.8686H30.7704V14.8203Z" fill="black" fill-opacity="0.7"/>
<path d="M30.7704 0.500977H17.1328V13.4567H30.7704V0.500977Z" fill="black" fill-opacity="0.7"/>
<path d="M43.533 15.6895H47.6755V42.0489H61.3186V45.2721H43.5293V15.6895H43.533Z" fill="black" fill-opacity="0.7"/>
<path d="M85.8282 34.4544C85.8282 42.3153 79.9447 45.7561 74.4402 45.7561C68.2303 45.7561 63.4312 41.5611 63.4312 34.8221C63.4312 27.7192 68.4704 23.5654 74.8042 23.5654C81.1379 23.5654 85.8282 27.9931 85.8282 34.4582V34.4544ZM67.6712 34.7021C67.6712 39.3586 70.5491 42.8632 74.6128 42.8632C78.6765 42.8632 81.592 39.4036 81.592 34.5858C81.592 30.9949 79.6408 26.4547 74.6916 26.4547C69.7424 26.4547 67.6749 30.6759 67.6749 34.7021H67.6712Z" fill="black" fill-opacity="0.7"/>
<path d="M110.901 24.0457C110.784 25.5466 110.709 27.2689 110.709 29.8542V42.1803C110.709 47.0919 109.629 50.0374 107.441 51.8985C105.19 53.8084 101.989 54.4463 99.0999 54.4463C96.2107 54.4463 93.3139 53.846 91.4566 52.6978L92.4997 49.7298C94.0269 50.6153 96.3833 51.4295 99.2425 51.4295C103.494 51.4295 106.616 49.3658 106.616 43.9926V41.6249H106.522C105.269 43.6174 102.773 45.2008 99.2462 45.2008C93.5353 45.2008 89.4829 40.6981 89.4829 34.8184C89.4829 27.6216 94.5334 23.5654 99.8203 23.5654C103.794 23.5654 105.944 25.4603 106.965 27.2276H107.058L107.231 24.0495H110.904L110.901 24.0457ZM106.567 32.3944C106.567 31.7641 106.507 31.1862 106.338 30.6684C105.569 28.4208 103.558 26.5597 100.488 26.5597C96.5146 26.5597 93.6666 29.6741 93.6666 34.6083C93.6666 38.762 95.9818 42.2553 100.447 42.2553C103.032 42.2553 105.347 40.7432 106.24 38.2742C106.462 37.6513 106.567 36.8971 106.567 36.2217V32.3944Z" fill="black" fill-opacity="0.7"/>
<path d="M138.337 34.4544C138.337 42.3153 132.454 45.7561 126.949 45.7561C120.739 45.7561 115.94 41.5611 115.94 34.8221C115.94 27.7192 120.979 23.5654 127.313 23.5654C133.647 23.5654 138.337 27.9931 138.337 34.4582V34.4544ZM120.18 34.7021C120.18 39.3586 123.058 42.8632 127.122 42.8632C131.185 42.8632 134.101 39.4036 134.101 34.5858C134.101 30.9949 132.15 26.4547 127.2 26.4547C122.251 26.4547 120.184 30.6759 120.184 34.7021H120.18Z" fill="black" fill-opacity="0.7"/>
<path d="M148.258 18.046C148.258 19.3593 147.263 20.4437 145.609 20.4437C144.1 20.4437 143.091 19.3593 143.095 18.046C143.095 16.7214 144.157 15.6445 145.684 15.6445C147.211 15.6445 148.247 16.6989 148.258 18.046ZM143.605 45.2722V24.0458H147.748V45.2722H143.605Z" fill="black" fill-opacity="0.7"/>
<path d="M154.678 30.9609C154.678 28.2556 154.599 26.0492 154.49 24.0456H158.212L158.441 27.6627H158.535C160.201 25.0737 162.944 23.5615 166.662 23.5615C172.208 23.5615 176.385 27.8916 176.385 34.3342C176.385 41.985 171.338 45.756 165.972 45.756C162.91 45.756 160.28 44.5215 158.914 42.4127H158.82V53.9659H154.682V30.9647L154.678 30.9609ZM158.817 36.6343C158.817 37.1784 158.877 37.7112 158.997 38.2027C159.747 40.9006 162.269 42.7317 165.222 42.7317C169.638 42.7317 172.186 39.3734 172.186 34.5105C172.186 30.2743 169.792 26.6346 165.383 26.6346C162.546 26.6346 159.871 28.4957 159.083 31.3962C158.948 31.8952 158.817 32.4581 158.817 32.9646V36.6343Z" fill="black" fill-opacity="0.7"/>
<path d="M181.038 41.3435C182.291 42.0714 184.482 42.8557 186.557 42.8557C189.597 42.8557 191.007 41.4711 191.007 39.6963C191.007 37.9215 189.795 36.8671 186.752 35.809C182.614 34.4206 180.655 32.3344 180.666 29.7904C180.666 26.3721 183.664 23.5654 188.587 23.5654C190.917 23.5654 192.925 24.1508 194.197 24.8712L193.161 27.6779C192.279 27.1638 190.602 26.4284 188.463 26.4284C186.006 26.4284 184.67 27.7417 184.67 29.3401C184.67 31.0962 186.017 31.8804 189.019 32.961C192.966 34.3231 195.015 36.1692 195.026 39.3398C195.026 43.1033 191.87 45.7374 186.463 45.7374C183.957 45.7374 181.638 45.137 180.028 44.259L181.038 41.3473V41.3435Z" fill="black" fill-opacity="0.7"/>
<path d="M219.528 39.463C219.528 41.6881 219.607 43.5942 219.719 45.2715H216.038L215.817 41.8006H215.701C214.646 43.5079 212.226 45.7555 208.121 45.7555C204.538 45.7555 200.234 43.8944 200.234 36.4537V24.0488H204.376V35.7783C204.376 39.8195 205.735 42.5736 209.494 42.5736C212.286 42.5736 214.233 40.7613 215.006 39.0315C215.22 38.4762 215.385 37.7857 215.385 37.0503V24.0488H219.528V39.4667V39.463Z" fill="black" fill-opacity="0.7"/>
<path d="M226.469 29.779C226.469 27.5652 226.391 25.8054 226.282 24.0456H229.903L230.12 27.4638H230.237C231.512 25.4451 233.647 23.5653 237.467 23.5653C240.57 23.5653 242.942 25.3176 243.921 27.8203H244.015C244.746 26.6121 245.651 25.6965 246.6 25.0549C247.985 24.0906 249.478 23.5615 251.639 23.5615C254.697 23.5615 259.2 25.3889 259.2 32.7695V45.2682H255.136V33.2648C255.136 29.1523 253.5 26.7171 250.168 26.7171C247.782 26.7171 245.947 28.3269 245.216 30.1917C245.017 30.7508 244.874 31.4412 244.874 32.1279V45.2682H240.81V32.5293C240.81 29.1486 239.197 26.7171 236.053 26.7171C233.456 26.7171 231.554 28.6383 230.863 30.5707C230.657 31.1373 230.548 31.8089 230.548 32.4731V45.2682H226.484V29.7752L226.469 29.779Z" fill="black" fill-opacity="0.7"/>
</svg>
