<svg width="245" height="55" viewBox="0 0 245 55" fill="none" xmlns="http://www.w3.org/2000/svg">
<path d="M7.00306 14.8928C10.8643 14.8928 13.9944 11.7627 13.9944 7.9015C13.9944 4.04029 10.8643 0.910156 7.00306 0.910156C3.14185 0.910156 0.0117188 4.04029 0.0117188 7.9015C0.0117188 11.7627 3.14185 14.8928 7.00306 14.8928Z" fill="black" fill-opacity="0.7"/>
<path d="M10.0256 16.3633H3.91015C1.75063 16.3633 0 18.1139 0 20.2734V26.3889C0 28.5484 1.75063 30.299 3.91015 30.299H10.0256C12.1851 30.299 13.9358 28.5484 13.9358 26.3889V20.2734C13.9358 18.1139 12.1851 16.3633 10.0256 16.3633Z" fill="black" fill-opacity="0.7"/>
<path d="M10.0334 31.7656H3.91796C1.75844 31.7656 0.0078125 33.5163 0.0078125 35.6758V41.7912C0.0078125 43.9507 1.75844 45.7014 3.91796 45.7014H10.0334C12.1929 45.7014 13.9436 43.9507 13.9436 41.7912V35.6758C13.9436 33.5163 12.1929 31.7656 10.0334 31.7656Z" fill="black" fill-opacity="0.7"/>
<path d="M25.2517 31.7656H19.1362C16.9767 31.7656 15.2261 33.5163 15.2261 35.6758V41.7912C15.2261 43.9507 16.9767 45.7014 19.1362 45.7014H25.2517C27.4112 45.7014 29.1618 43.9507 29.1618 41.7912V35.6758C29.1618 33.5163 27.4112 31.7656 25.2517 31.7656Z" fill="black" fill-opacity="0.7"/>
<path d="M58.656 33.3603C58.656 41.7984 52.3372 45.4935 46.429 45.4935C39.7622 45.4935 34.6086 40.989 34.6086 33.7552C34.6086 26.1304 40.0164 21.6689 46.82 21.6689C53.6237 21.6689 58.656 26.4198 58.656 33.3642V33.3603ZM39.1601 33.6262C39.1601 38.6272 42.2491 42.3888 46.6128 42.3888C50.9765 42.3888 54.1046 38.6742 54.1046 33.5049C54.1046 29.6495 52.0088 24.7736 46.6949 24.7736C41.381 24.7736 39.1601 29.3054 39.1601 33.6262Z" fill="black" fill-opacity="0.7"/>
<path d="M85.5774 22.1851C85.4522 23.7961 85.3701 25.6455 85.3701 28.4218V41.6537C85.3701 46.9285 84.2088 50.0918 81.8588 52.0899C79.4423 54.1427 76.0053 54.8231 72.9007 54.8231C69.796 54.8231 66.6914 54.1779 64.6933 52.9462L65.8155 49.7594C67.4577 50.7096 69.9837 51.5855 73.0532 51.5855C77.6163 51.5855 80.9712 49.3723 80.9712 43.6009V41.0593H80.8695C79.5245 43.2021 76.846 44.8991 73.0571 44.8991C66.926 44.8991 62.574 40.0662 62.574 33.7513C62.574 26.0248 67.9973 21.6689 73.6749 21.6689C77.9408 21.6689 80.2517 23.7022 81.3466 25.5986H81.4483L81.6359 22.1851H85.5813H85.5774ZM80.9243 31.1471C80.9243 30.4707 80.8578 29.849 80.678 29.2937C79.8529 26.8812 77.6945 24.8831 74.3983 24.8831C70.1323 24.8831 67.0746 28.2263 67.0746 33.5245C67.0746 37.9821 69.5575 41.7319 74.3552 41.7319C77.1315 41.7319 79.6183 40.1053 80.5763 37.4581C80.8148 36.7895 80.9282 35.9762 80.9282 35.2567V31.1471H80.9243Z" fill="black" fill-opacity="0.7"/>
<path d="M115.036 33.3603C115.036 41.7984 108.718 45.4935 102.809 45.4935C96.1426 45.4935 90.989 40.989 90.989 33.7552C90.989 26.1304 96.3968 21.6689 103.2 21.6689C110.004 21.6689 115.036 26.4198 115.036 33.3642V33.3603ZM95.5404 33.6262C95.5404 38.6272 98.6294 42.3888 102.993 42.3888C107.357 42.3888 110.485 38.6742 110.485 33.5049C110.485 29.6495 108.389 24.7736 103.075 24.7736C97.7614 24.7736 95.5404 29.3054 95.5404 33.6262Z" fill="black" fill-opacity="0.7"/>
<path d="M125.688 15.7418C125.688 17.1534 124.62 18.3186 122.845 18.3186C121.226 18.3186 120.143 17.1534 120.147 15.7418C120.147 14.3185 121.289 13.1611 122.927 13.1611C124.565 13.1611 125.68 14.2912 125.692 15.7418H125.688ZM120.69 44.9741V22.1858H125.14V44.9741H120.69Z" fill="black" fill-opacity="0.7"/>
<path d="M132.581 29.6105C132.581 26.7052 132.499 24.3396 132.378 22.1851H136.374L136.62 26.0679H136.722C138.509 23.2878 141.453 21.665 145.45 21.665C151.401 21.665 155.886 26.3103 155.886 33.2313C155.886 41.4465 150.466 45.4935 144.707 45.4935C141.418 45.4935 138.595 44.1679 137.129 41.904H137.027V54.3069H132.581V29.6105ZM137.027 35.7025C137.027 36.2851 137.094 36.8559 137.219 37.3877C138.024 40.2851 140.734 42.2481 143.905 42.2481C148.644 42.2481 151.381 38.6429 151.381 33.4189C151.381 28.8714 148.812 24.9613 144.077 24.9613C141.035 24.9613 138.161 26.9594 137.313 30.0758C137.168 30.6115 137.027 31.2136 137.027 31.761V35.7025Z" fill="black" fill-opacity="0.7"/>
<path d="M160.883 40.7544C162.232 41.5325 164.582 42.3771 166.811 42.3771C170.076 42.3771 171.589 40.8912 171.589 38.9831C171.589 37.0749 170.287 35.9449 167.018 34.8109C162.576 33.3212 160.472 31.0807 160.484 28.3475C160.484 24.6758 163.702 21.665 168.989 21.665C171.491 21.665 173.646 22.2946 175.01 23.0688L173.9 26.0835C172.954 25.5322 171.151 24.7423 168.856 24.7423C166.216 24.7423 164.781 26.1539 164.781 27.8704C164.781 29.7551 166.228 30.5997 169.45 31.7571C173.689 33.2195 175.89 35.202 175.902 38.6038C175.902 42.643 172.516 45.47 166.705 45.47C164.015 45.47 161.524 44.8248 159.796 43.8825L160.879 40.7544H160.883Z" fill="black" fill-opacity="0.7"/>
<path d="M202.209 38.7372C202.209 41.1263 202.291 43.1713 202.413 44.9739H198.463L198.225 41.2475H198.1C196.966 43.0814 194.37 45.4939 189.963 45.4939C186.115 45.4939 181.493 43.4958 181.493 35.5074V22.1894H185.943V34.7801C185.943 39.1204 187.402 42.0765 191.437 42.0765C194.432 42.0765 196.528 40.1331 197.353 38.2719C197.584 37.6736 197.76 36.9346 197.76 36.1448V22.1855H202.209V38.7372Z" fill="black" fill-opacity="0.7"/>
<path d="M209.662 28.3406C209.662 25.9633 209.58 24.0747 209.459 22.1861H213.345L213.58 25.8538H213.705C215.074 23.6876 217.365 21.666 221.467 21.666C224.798 21.666 227.344 23.5468 228.396 26.2331H228.497C229.283 24.9349 230.253 23.9534 231.27 23.2653C232.759 22.2291 234.359 21.6621 236.677 21.6621C239.962 21.6621 244.795 23.625 244.795 31.5509V44.9705H240.431V32.0827C240.431 27.6681 238.675 25.0561 235.098 25.0561C232.533 25.0561 230.566 26.7844 229.776 28.7864C229.561 29.3846 229.408 30.1276 229.408 30.8666V44.9744H225.045V31.2967C225.045 27.6681 223.312 25.0561 219.934 25.0561C217.15 25.0561 215.105 27.1168 214.362 29.1931C214.143 29.7991 214.022 30.5225 214.022 31.2341V44.9705H209.658V28.3367L209.662 28.3406Z" fill="black" fill-opacity="0.7"/>
</svg>
