<svg width="256" height="46" viewBox="0 0 256 46" fill="none" xmlns="http://www.w3.org/2000/svg">
<path d="M73.4171 5.92969V29.9721C73.4171 30.4736 73.5297 30.8625 73.7514 31.149C73.9732 31.4355 74.2904 31.5754 74.6929 31.5754H76.6408V35.5086H74.2085C72.653 35.5086 71.4454 35.0208 70.579 34.0486C69.7125 33.0764 69.2827 31.705 69.2827 29.9346V5.92969H73.4171Z" fill="black" fill-opacity="0.7"/>
<path d="M89.375 35.7132C86.6187 35.7132 84.4833 34.9115 82.9687 33.3117C81.4541 31.7084 80.6968 29.457 80.6968 26.5506V23.1257C80.6968 20.2466 81.4541 18.0156 82.9687 16.4362C84.4833 14.8534 86.6187 14.0654 89.375 14.0654C92.1313 14.0654 94.2667 14.8568 95.7813 16.4362C97.2959 18.0191 98.0532 20.2466 98.0532 23.1257V26.612C98.0532 29.5047 97.2959 31.7459 95.7813 33.3321C94.2667 34.9218 92.1313 35.7132 89.375 35.7132ZM89.375 31.78C90.8214 31.78 91.9402 31.3263 92.7316 30.4223C93.5231 29.5184 93.9188 28.246 93.9188 26.612V23.1257C93.9188 21.4917 93.5231 20.2261 92.7316 19.3358C91.9402 18.4455 90.8214 17.9986 89.375 17.9986C87.9286 17.9986 86.8268 18.4455 86.0286 19.3358C85.2303 20.2261 84.8312 21.4917 84.8312 23.1257V26.612C84.8312 28.246 85.2303 29.5184 86.0286 30.4223C86.8268 31.3297 87.9423 31.78 89.375 31.78Z" fill="black" fill-opacity="0.7"/>
<path d="M110.6 35.771C108.277 35.771 106.483 35.024 105.217 33.5299C103.951 32.0357 103.32 29.931 103.32 27.2156V22.5729C103.32 19.8439 103.938 17.7324 105.176 16.2383C106.411 14.7441 108.154 13.9971 110.395 13.9971C111.637 13.9971 112.776 14.3211 113.81 14.9693C114.843 15.6174 115.679 16.5316 116.314 17.7051L115.887 22.0033C115.887 21.1129 115.724 20.3488 115.4 19.7109C115.075 19.0764 114.605 18.592 113.991 18.2611C113.377 17.9302 112.63 17.7631 111.75 17.7631C110.385 17.7631 109.328 18.1895 108.577 19.0389C107.827 19.8917 107.451 21.0856 107.451 22.6275V27.2088C107.451 28.7371 107.827 29.9139 108.577 30.7463C109.328 31.5786 110.385 31.9914 111.75 31.9914C112.626 31.9914 113.373 31.8208 113.991 31.4729C114.605 31.1283 115.075 30.6303 115.4 29.9822C115.724 29.334 115.887 28.5563 115.887 27.6523L116.17 32.0937C115.792 33.0386 115.14 33.888 114.216 34.6385C113.291 35.389 112.084 35.7642 110.596 35.7642L110.6 35.771ZM110.985 43.9614C109.403 43.9614 107.987 43.6681 106.738 43.0813C105.486 42.4946 104.518 41.6657 103.829 40.5979L106.626 38.0634C107.165 38.807 107.813 39.3801 108.563 39.7861C109.314 40.192 110.102 40.3933 110.924 40.3933C112.507 40.3933 113.728 39.9566 114.594 39.0868C115.461 38.2135 115.891 36.982 115.891 35.3856V14.3621H120.025V34.7784C120.025 37.6984 119.237 39.9566 117.665 41.5599C116.089 43.1632 113.864 43.9614 110.985 43.9614Z" fill="black" fill-opacity="0.7"/>
<path d="M134.379 35.7132C131.623 35.7132 129.488 34.9115 127.973 33.3117C126.458 31.7084 125.701 29.457 125.701 26.5506V23.1257C125.701 20.2466 126.458 18.0156 127.973 16.4362C129.488 14.8534 131.623 14.0654 134.379 14.0654C137.136 14.0654 139.271 14.8568 140.786 16.4362C142.3 18.0191 143.058 20.2466 143.058 23.1257V26.612C143.058 29.5047 142.3 31.7459 140.786 33.3321C139.271 34.9218 137.136 35.7132 134.379 35.7132ZM134.379 31.78C135.826 31.78 136.945 31.3263 137.736 30.4223C138.527 29.5184 138.923 28.246 138.923 26.612V23.1257C138.923 21.4917 138.527 20.2261 137.736 19.3358C136.945 18.4455 135.826 17.9986 134.379 17.9986C132.933 17.9986 131.831 18.4455 131.033 19.3358C130.235 20.2261 129.836 21.4917 129.836 23.1257V26.612C129.836 28.246 130.235 29.5184 131.033 30.4223C131.831 31.3297 132.947 31.78 134.379 31.78Z" fill="black" fill-opacity="0.7"/>
<path d="M148.935 10.067V5.93262H153.069V10.067H148.935ZM148.935 35.4092V14.3652H153.069V35.4092H148.935Z" fill="black" fill-opacity="0.7"/>
<path d="M159.356 43.9616V14.3622H163.491V43.9616H159.356ZM168.782 35.7098C167.472 35.7098 166.329 35.3959 165.357 34.7683C164.385 34.1406 163.668 33.2503 163.208 32.1041L163.491 27.7036C163.491 28.6076 163.655 29.3785 163.979 30.013C164.303 30.6475 164.773 31.1353 165.388 31.473C166.002 31.8107 166.749 31.9813 167.629 31.9813C168.993 31.9813 170.051 31.5651 170.801 30.7362C171.552 29.9038 171.927 28.7338 171.927 27.2192V22.6584C171.927 21.1165 171.552 19.9225 170.801 19.0697C170.051 18.2169 168.993 17.7939 167.629 17.7939C166.749 17.7939 166.005 17.9577 165.388 18.2817C164.773 18.6058 164.303 19.08 163.979 19.7008C163.655 20.3216 163.491 21.0789 163.491 21.9727L163.064 17.9167C163.699 16.6887 164.531 15.7369 165.558 15.0683C166.585 14.3997 167.728 14.0654 168.983 14.0654C171.241 14.0654 172.984 14.8125 174.212 16.3066C175.44 17.8007 176.058 19.9123 176.058 22.6413V27.2226C176.058 29.9107 175.423 32.0017 174.151 33.4856C172.882 34.9729 171.091 35.7166 168.778 35.7166L168.782 35.7098Z" fill="black" fill-opacity="0.7"/>
<path d="M189.382 35.7132C187.516 35.7132 185.824 35.4403 184.303 34.8911C182.782 34.3453 181.42 33.5232 180.216 32.4281L182.669 29.4092C183.819 30.2757 184.951 30.9238 186.063 31.357C187.179 31.7902 188.284 32.0052 189.379 32.0052C191.013 32.0052 192.241 31.7527 193.06 31.2444C193.878 30.7362 194.288 29.9789 194.288 28.9623C194.288 28.1777 194.015 27.6251 193.466 27.301C192.92 26.977 192.2 26.7655 191.317 26.6631C190.43 26.5608 189.481 26.4789 188.468 26.4107C187.615 26.3425 186.773 26.2367 185.934 26.0969C185.094 25.9536 184.33 25.6978 183.641 25.3259C182.952 24.9541 182.4 24.4049 181.99 23.6749C181.577 22.9449 181.373 21.9659 181.373 20.7344C181.373 18.5035 182.055 16.8354 183.419 15.7267C184.784 14.618 186.817 14.0654 189.522 14.0654C191.17 14.0654 192.705 14.2872 194.124 14.734C195.543 15.1809 196.873 15.8632 198.119 16.7808L195.625 19.7997C194.571 19.1243 193.534 18.616 192.514 18.2783C191.494 17.9406 190.498 17.77 189.522 17.77C188.117 17.77 187.063 18.0088 186.36 18.4898C185.657 18.9708 185.306 19.6906 185.306 20.6491C185.306 21.2836 185.548 21.7407 186.036 22.017C186.524 22.2933 187.165 22.4741 187.963 22.5526C188.761 22.6345 189.618 22.7095 190.539 22.7743C191.419 22.8289 192.306 22.9278 193.206 23.0677C194.103 23.211 194.932 23.4839 195.69 23.8898C196.447 24.2957 197.054 24.8961 197.515 25.6944C197.975 26.4926 198.204 27.5808 198.204 28.9589C198.204 31.2172 197.47 32.9057 196.004 34.028C194.537 35.1503 192.33 35.7098 189.386 35.7098L189.382 35.7132Z" fill="black" fill-opacity="0.7"/>
<path d="M207.609 14.3613V27.1535C207.609 28.6271 207.984 29.7665 208.734 30.5681C209.485 31.3732 210.542 31.7757 211.907 31.7757C213.271 31.7757 214.322 31.4141 215.059 30.6909C215.796 29.9678 216.164 28.9512 216.164 27.6413L216.447 32.0418C216.068 32.9867 215.407 33.8361 214.462 34.5866C213.517 35.3371 212.279 35.7123 210.75 35.7123C208.427 35.7123 206.633 34.9652 205.367 33.4711C204.102 31.977 203.471 29.8723 203.471 27.1569V14.3647H207.605L207.609 14.3613ZM216.164 35.4053V14.3613H220.278V35.4053H216.164Z" fill="black" fill-opacity="0.7"/>
<path d="M226.562 35.4066V14.3627H230.696V35.4066H226.562ZM239.132 35.4066V22.6554C239.132 21.1681 238.767 20.0185 238.037 19.21C237.307 18.3982 236.273 17.9922 234.936 17.9922C233.599 17.9922 232.541 18.3504 231.805 19.0668C231.068 19.7831 230.699 20.7895 230.699 22.0857L230.273 18.0298C230.921 16.7608 231.77 15.7783 232.818 15.0893C233.865 14.4002 235.025 14.0557 236.294 14.0557C238.511 14.0557 240.227 14.8027 241.445 16.2969C242.663 17.791 243.27 19.9025 243.27 22.6315V35.4032H239.135L239.132 35.4066ZM251.702 35.4066V22.6554C251.702 21.1681 251.32 20.0185 250.556 19.21C249.792 18.3982 248.707 17.9922 247.302 17.9922C246.019 17.9922 245.023 18.3845 244.32 19.1691C243.618 19.9537 243.266 21.0624 243.266 22.4951L242.434 18.4391C243.109 17.0337 243.99 15.9523 245.071 15.195C246.152 14.4377 247.35 14.0591 248.66 14.0591C250.945 14.0591 252.712 14.8061 253.961 16.3003C255.209 17.7944 255.837 19.9059 255.837 22.6349V35.4066H251.702Z" fill="black" fill-opacity="0.7"/>
<path d="M51.824 45.6811H2.11192C1.09878 45.6811 0.467698 44.586 0.972562 43.7094L25.8269 0.65947C26.3317 -0.217219 27.6007 -0.217219 28.1056 0.65947L32.6289 8.49851C32.8643 8.90445 32.8643 9.40591 32.6289 9.81525L18.9191 33.5643C18.4142 34.441 19.0453 35.536 20.0585 35.536H47.4814C47.9522 35.536 48.3854 35.785 48.6208 36.1944L52.9633 43.7128C53.4716 44.5895 52.8371 45.6879 51.824 45.6879V45.6811Z" fill="black" fill-opacity="0.7"/>
<path d="M58.0868 35.5325H48.9105C48.4944 35.5325 48.1123 35.3107 47.9042 34.9525L33.345 9.73322C33.1369 9.37504 33.1369 8.93158 33.345 8.5734L37.9332 0.628616C38.38 -0.145736 39.4989 -0.145736 39.9458 0.628616L59.0931 33.7927C59.54 34.5671 58.9805 35.5359 58.0868 35.5359V35.5325Z" fill="black" fill-opacity="0.7"/>
</svg>
