<svg width="252" height="77" viewBox="0 0 252 77" fill="none" xmlns="http://www.w3.org/2000/svg">
<path d="M93.9147 32.7642H90.5322V6.16699H93.9147V32.7642Z" fill="black" fill-opacity="0.7"/>
<path d="M106.091 33.2274C104.456 33.2274 103.002 32.861 101.733 32.1243C100.464 31.3915 99.4686 30.3926 98.7474 29.1391C98.0261 27.8818 97.6636 26.4624 97.6636 24.8772C97.6636 23.292 98.0261 21.8611 98.7474 20.5845C99.4686 19.3079 100.464 18.2974 101.733 17.5491C103.002 16.8009 104.456 16.4268 106.091 16.4268C107.726 16.4268 109.153 16.8009 110.411 17.5491C111.668 18.2974 112.648 19.3079 113.357 20.5845C114.067 21.8611 114.422 23.292 114.422 24.8772C114.422 26.4624 114.067 27.8818 113.357 29.1391C112.648 30.3965 111.668 31.3915 110.411 32.1243C109.153 32.8572 107.715 33.2274 106.091 33.2274ZM106.091 30.3463C107.121 30.3463 108.019 30.1072 108.787 29.6328C109.554 29.1545 110.148 28.5027 110.576 27.6696C111.001 26.8365 111.213 25.8993 111.213 24.8579C111.213 23.8166 111.001 22.8755 110.576 22.0347C110.152 21.1977 109.554 20.5344 108.787 20.0445C108.019 19.5547 107.121 19.3117 106.091 19.3117C105.061 19.3117 104.139 19.5547 103.364 20.0445C102.593 20.5344 101.987 21.1977 101.555 22.0347C101.123 22.8716 100.907 23.8127 100.907 24.8579C100.907 25.9032 101.123 26.8404 101.555 27.6696C101.987 28.4989 102.589 29.1545 103.364 29.6328C104.135 30.111 105.046 30.3463 106.091 30.3463Z" fill="black" fill-opacity="0.7"/>
<path d="M130.887 32.7646V29.6714C130.783 29.9954 130.486 30.4389 129.988 31.0059C129.491 31.5729 128.816 32.0858 127.96 32.5409C127.103 32.9999 126.093 33.2275 124.936 33.2275C123.466 33.2275 122.136 32.8804 120.944 32.1823C119.752 31.488 118.803 30.5122 118.101 29.2549C117.399 27.9975 117.048 26.528 117.048 24.8387C117.048 23.1494 117.399 21.6799 118.101 20.4226C118.803 19.1652 119.752 18.1856 120.944 17.4836C122.136 16.7816 123.466 16.4307 124.936 16.4307C126.081 16.4307 127.076 16.6351 127.921 17.0478C128.766 17.4605 129.441 17.9387 129.95 18.4787C130.459 19.0186 130.76 19.4853 130.848 19.871V16.8935H134.173V32.7608H130.887V32.7646ZM125.707 41.2498C124.457 41.2498 123.327 41.1225 122.313 40.8641C121.302 40.6057 120.419 40.2432 119.663 39.7726C118.911 39.3021 118.306 38.7506 117.854 38.1219L120.057 36.016C120.3 36.3516 120.635 36.7103 121.052 37.0882C121.472 37.4662 122.039 37.794 122.764 38.064C123.485 38.334 124.427 38.469 125.588 38.469C126.748 38.469 127.682 38.226 128.469 37.7439C129.255 37.2618 129.853 36.6061 130.266 35.7807C130.679 34.9554 130.883 34.0297 130.883 32.9961V32.4754H134.169V33.2082C134.169 34.9592 133.791 36.4326 133.039 37.6243C132.287 38.8161 131.269 39.7186 129.996 40.3319C128.719 40.9451 127.288 41.2498 125.703 41.2498H125.707ZM120.373 24.8387C120.373 25.9842 120.624 26.9793 121.125 27.8162C121.626 28.6532 122.282 29.3011 123.088 29.7601C123.894 30.2191 124.754 30.4466 125.669 30.4466C126.648 30.4466 127.524 30.2152 128.299 29.7524C129.074 29.2896 129.684 28.6339 130.135 27.7892C130.586 26.9446 130.81 25.9611 130.81 24.8426C130.81 23.7241 130.586 22.7406 130.135 21.8959C129.684 21.0512 129.07 20.3956 128.299 19.925C127.528 19.4545 126.648 19.2192 125.669 19.2192C124.754 19.2192 123.894 19.4506 123.088 19.9134C122.282 20.3763 121.63 21.0281 121.125 21.865C120.624 22.702 120.373 23.6932 120.373 24.8426V24.8387Z" fill="black" fill-opacity="0.7"/>
<path d="M146.156 33.2274C144.521 33.2274 143.067 32.861 141.798 32.1243C140.529 31.3915 139.534 30.3926 138.813 29.1391C138.092 27.8818 137.729 26.4624 137.729 24.8772C137.729 23.292 138.092 21.8611 138.813 20.5845C139.534 19.3079 140.529 18.2974 141.798 17.5491C143.067 16.8009 144.521 16.4268 146.156 16.4268C147.792 16.4268 149.219 16.8009 150.476 17.5491C151.733 18.2974 152.713 19.3079 153.423 20.5845C154.132 21.8611 154.487 23.292 154.487 24.8772C154.487 26.4624 154.132 27.8818 153.423 29.1391C152.713 30.3965 151.733 31.3915 150.476 32.1243C149.219 32.8572 147.78 33.2274 146.156 33.2274ZM146.156 30.3463C147.186 30.3463 148.085 30.1072 148.852 29.6328C149.62 29.1545 150.214 28.5027 150.642 27.6696C151.066 26.8365 151.278 25.8993 151.278 24.8579C151.278 23.8166 151.066 22.8755 150.642 22.0347C150.218 21.1977 149.62 20.5344 148.852 20.0445C148.085 19.5547 147.186 19.3117 146.156 19.3117C145.127 19.3117 144.205 19.5547 143.43 20.0445C142.658 20.5344 142.053 21.1977 141.621 22.0347C141.189 22.8716 140.973 23.8127 140.973 24.8579C140.973 25.9032 141.189 26.8404 141.621 27.6696C142.053 28.4989 142.654 29.1545 143.43 29.6328C144.201 30.111 145.111 30.3463 146.156 30.3463Z" fill="black" fill-opacity="0.7"/>
<path d="M160.288 11.462C159.683 11.462 159.162 11.246 158.734 10.814C158.302 10.382 158.086 9.86519 158.086 9.25966C158.086 8.65413 158.302 8.13345 158.734 7.69376C159.166 7.25407 159.683 7.03809 160.288 7.03809C160.689 7.03809 161.06 7.14222 161.399 7.34664C161.738 7.55491 162.016 7.82104 162.221 8.14887C162.425 8.47671 162.529 8.84697 162.529 9.25966C162.529 9.86519 162.309 10.3859 161.873 10.814C161.434 11.246 160.909 11.462 160.288 11.462ZM158.568 32.7636V16.8963H161.931V32.7636H158.568Z" fill="black" fill-opacity="0.7"/>
<path d="M170.474 40.8063H167.13V16.8974H170.532V19.8749C170.648 19.4738 170.972 19.0071 171.5 18.4633C172.029 17.9233 172.742 17.4489 173.637 17.044C174.532 16.639 175.562 16.4346 176.719 16.4346C178.188 16.4346 179.492 16.7855 180.633 17.4875C181.775 18.1895 182.67 19.1691 183.322 20.4265C183.973 21.6838 184.297 23.1533 184.297 24.8426C184.297 26.5319 183.962 28.0014 183.291 29.2588C182.62 30.5161 181.709 31.4919 180.556 32.1862C179.403 32.8804 178.084 33.2314 176.603 33.2314C175.403 33.2314 174.358 33.0077 173.463 32.5564C172.569 32.1052 171.867 31.596 171.358 31.0291C170.848 30.4621 170.555 30.0109 170.478 29.6753V40.8102L170.474 40.8063ZM180.969 24.8388C180.969 23.6933 180.734 22.6982 180.263 21.8612C179.793 21.0243 179.172 20.3725 178.396 19.9096C177.625 19.4468 176.784 19.2154 175.886 19.2154C174.894 19.2154 173.992 19.4507 173.178 19.9212C172.364 20.3918 171.72 21.0474 171.246 21.8921C170.767 22.7367 170.528 23.7203 170.528 24.8388C170.528 25.9573 170.767 26.9446 171.246 27.7854C171.724 28.6301 172.368 29.2819 173.178 29.7486C173.988 30.2114 174.89 30.4428 175.886 30.4428C176.788 30.4428 177.625 30.2153 178.396 29.7563C179.168 29.2973 179.793 28.6532 180.263 27.8124C180.734 26.9755 180.969 25.9843 180.969 24.8349V24.8388Z" fill="black" fill-opacity="0.7"/>
<path d="M193.747 16.4306C194.572 16.4306 195.34 16.5154 196.057 16.6813C196.771 16.8471 197.392 17.0477 197.912 17.2791C198.433 17.5105 198.803 17.7188 199.023 17.8962L197.689 20.0213C197.43 19.7899 196.967 19.5277 196.296 19.2384C195.625 18.9491 194.881 18.8026 194.055 18.8026C193.153 18.8026 192.385 18.98 191.757 19.3348C191.124 19.6896 190.808 20.2026 190.808 20.8699C190.808 21.5371 191.132 22.0732 191.784 22.4628C192.436 22.8562 193.307 23.1801 194.403 23.4386C195.278 23.643 196.1 23.9207 196.867 24.2678C197.635 24.6149 198.256 25.097 198.734 25.7064C199.212 26.3197 199.447 27.1335 199.447 28.1517C199.447 29.0812 199.255 29.868 198.869 30.5198C198.483 31.1716 197.959 31.6923 197.303 32.0857C196.647 32.4791 195.911 32.7645 195.101 32.9458C194.287 33.1271 193.465 33.2158 192.625 33.2158C191.645 33.2158 190.762 33.1155 189.975 32.915C189.188 32.7144 188.528 32.4753 187.992 32.2014C187.456 31.9237 187.067 31.6846 186.824 31.4763L188.158 29.0812C188.494 29.4052 189.045 29.7446 189.813 30.1071C190.58 30.4697 191.452 30.6471 192.432 30.6471C193.515 30.6471 194.391 30.4195 195.062 29.9606C195.733 29.5016 196.069 28.9076 196.069 28.171C196.069 27.6156 195.907 27.172 195.587 26.8365C195.266 26.5009 194.835 26.231 194.291 26.0265C193.751 25.8221 193.157 25.6408 192.513 25.4866C191.896 25.3439 191.29 25.1587 190.704 24.9273C190.118 24.6959 189.581 24.3951 189.099 24.0287C188.617 23.6623 188.232 23.211 187.95 22.6749C187.665 22.1388 187.526 21.5101 187.526 20.7889C187.526 19.8748 187.815 19.0918 188.393 18.44C188.972 17.7882 189.732 17.2907 190.673 16.9435C191.614 16.5964 192.636 16.4229 193.747 16.4229V16.4306Z" fill="black" fill-opacity="0.7"/>
<path d="M206.502 24.8956C206.502 26.558 206.86 27.8809 207.574 28.8683C208.287 29.8556 209.387 30.3454 210.868 30.3454C212.349 30.3454 213.463 29.8518 214.173 28.8683C214.883 27.8809 215.237 26.558 215.237 24.8956V16.8926H218.562V25.3585C218.562 26.9051 218.261 28.2704 217.663 29.4545C217.066 30.6386 216.194 31.5642 215.052 32.2276C213.911 32.891 212.518 33.2227 210.868 33.2227C209.217 33.2227 207.844 32.891 206.702 32.2276C205.561 31.5642 204.693 30.6386 204.091 29.4545C203.493 28.2704 203.192 26.9012 203.192 25.3585V16.8926H206.498V24.8956H206.502Z" fill="black" fill-opacity="0.7"/>
<path d="M242.162 16.4307C243.335 16.4307 244.342 16.6852 245.179 17.1943C246.015 17.7034 246.656 18.4787 247.103 19.5239C247.547 20.5691 247.77 21.8998 247.77 23.5235V32.7646H244.446V24.2023C244.446 22.4899 244.207 21.2017 243.732 20.3377C243.254 19.4738 242.386 19.0418 241.121 19.0418C240.45 19.0418 239.81 19.2269 239.196 19.5933C238.583 19.9597 238.082 20.5228 237.688 21.2865C237.295 22.0463 237.098 23.0183 237.098 24.2062V32.7685H233.967V24.2062C233.967 22.4937 233.67 21.2055 233.076 20.3416C232.482 19.4776 231.652 19.0456 230.584 19.0456C229.901 19.0456 229.261 19.2231 228.659 19.5779C228.062 19.9327 227.572 20.4881 227.202 21.2479C226.827 22.0077 226.642 22.9951 226.642 24.2062V32.7685H223.298V16.9012H226.642V19.3349C226.785 18.9338 227.09 18.5095 227.56 18.0583C228.031 17.607 228.636 17.2252 229.377 16.9089C230.117 16.5927 230.947 16.4345 231.861 16.4345C232.775 16.4345 233.612 16.6274 234.256 17.0131C234.9 17.3987 235.409 17.8731 235.783 18.4324C236.157 18.9916 236.416 19.5316 236.555 20.0446C236.736 19.4892 237.083 18.9338 237.6 18.3745C238.117 17.8153 238.764 17.3486 239.551 16.9822C240.338 16.6158 241.206 16.4307 242.162 16.4307Z" fill="black" fill-opacity="0.7"/>
<path d="M91.5264 49.0957H251.086" stroke="black"/>
<path d="M91.335 59.8701H91.7592V68.3399H95.4888V68.7718H91.335V59.8701Z" fill="black" fill-opacity="0.7"/>
<path d="M100.14 68.9348C99.6003 68.9348 99.122 68.8037 98.7055 68.5453C98.2889 68.283 97.9611 67.9359 97.722 67.4923C97.4828 67.0526 97.3633 66.5628 97.3633 66.0228C97.3633 65.4829 97.4828 64.9892 97.722 64.5418C97.9611 64.0944 98.2889 63.7396 98.7055 63.4734C99.122 63.2073 99.6041 63.0762 100.14 63.0762C100.676 63.0762 101.158 63.2073 101.575 63.4734C101.992 63.7396 102.316 64.0944 102.551 64.5418C102.786 64.9892 102.906 65.4829 102.906 66.0228C102.906 66.5628 102.786 67.0526 102.551 67.4923C102.316 67.932 101.988 68.283 101.575 68.5453C101.158 68.8075 100.68 68.9348 100.14 68.9348ZM100.14 68.5028C100.607 68.5028 101.016 68.3948 101.367 68.175C101.718 67.959 101.988 67.662 102.184 67.2841C102.377 66.9099 102.474 66.4857 102.474 66.019C102.474 65.5523 102.377 65.128 102.184 64.7462C101.992 64.3682 101.718 64.0635 101.367 63.8398C101.016 63.6161 100.607 63.5043 100.14 63.5043C99.6736 63.5043 99.2609 63.6161 98.9099 63.8398C98.5551 64.0635 98.2812 64.3682 98.0884 64.7462C97.8917 65.128 97.7953 65.5484 97.7953 66.019C97.7953 66.4895 97.8917 66.9099 98.0884 67.2841C98.2851 67.6582 98.5589 67.9552 98.9099 68.175C99.2647 68.3948 99.6736 68.5028 100.14 68.5028Z" fill="black" fill-opacity="0.7"/>
<path d="M105.598 68.7718H105.181V63.2371H105.598V64.2746H105.563C105.578 64.1551 105.656 63.9969 105.802 63.808C105.949 63.619 106.149 63.4493 106.404 63.2988C106.658 63.1484 106.951 63.0713 107.283 63.0713C107.545 63.0713 107.765 63.1021 107.943 63.1677C108.124 63.2294 108.244 63.295 108.305 63.3567L108.097 63.7424C108.035 63.6923 107.923 63.6421 107.765 63.5881C107.607 63.5341 107.418 63.5071 107.191 63.5071C106.874 63.5071 106.597 63.619 106.358 63.8427C106.118 64.0664 105.929 64.3364 105.794 64.6449C105.659 64.9535 105.594 65.2389 105.594 65.4934V68.7718H105.598Z" fill="black" fill-opacity="0.7"/>
<path d="M109.817 65.9687C109.817 66.4046 109.898 66.8173 110.06 67.2068C110.222 67.5964 110.469 67.9126 110.801 68.1556C111.132 68.3986 111.553 68.5182 112.062 68.5182C112.471 68.5182 112.806 68.4487 113.069 68.3099C113.331 68.171 113.539 68.009 113.69 67.8201C113.84 67.6349 113.944 67.4691 114.002 67.3302L114.399 67.6002C114.218 67.8933 114.021 68.1402 113.798 68.3369C113.578 68.5374 113.323 68.6879 113.038 68.7843C112.752 68.8846 112.417 68.9308 112.035 68.9308C111.456 68.9308 110.967 68.7959 110.566 68.522C110.164 68.2482 109.864 67.8856 109.659 67.4305C109.455 66.9754 109.351 66.474 109.351 65.9302C109.351 65.3864 109.455 64.9042 109.663 64.4723C109.871 64.0403 110.176 63.7009 110.573 63.4463C110.97 63.1956 111.453 63.0684 112.012 63.0684C112.509 63.0684 112.945 63.1841 113.315 63.4155C113.686 63.6469 113.975 63.9632 114.183 64.3643C114.392 64.7654 114.492 65.2205 114.492 65.7335C114.492 65.772 114.492 65.8145 114.484 65.853C114.48 65.8916 114.476 65.9302 114.476 65.9649H109.802L109.817 65.9687ZM114.025 65.5368C114.017 65.2436 113.948 64.9428 113.825 64.6265C113.701 64.3103 113.497 64.0442 113.207 63.8282C112.918 63.6122 112.525 63.5003 112.02 63.5003C111.487 63.5003 111.071 63.6045 110.762 63.8166C110.454 64.0287 110.23 64.291 110.095 64.6073C109.96 64.9235 109.875 65.2321 109.848 65.5368H114.021H114.025Z" fill="black" fill-opacity="0.7"/>
<path d="M122.472 63.0762C122.877 63.0762 123.212 63.1687 123.479 63.35C123.745 63.5313 123.945 63.809 124.08 64.1754C124.211 64.5457 124.281 65.0123 124.281 65.5793V68.7767H123.849V65.7567C123.849 64.9738 123.745 64.4068 123.536 64.0558C123.328 63.7048 122.962 63.5274 122.441 63.5274C122.186 63.5274 121.924 63.6007 121.662 63.7473C121.4 63.8938 121.18 64.1291 121.002 64.4569C120.825 64.7848 120.736 65.2168 120.736 65.7606V68.7805H120.304V65.7606C120.304 64.9776 120.169 64.4107 119.895 64.0597C119.622 63.7087 119.278 63.5313 118.862 63.5313C118.6 63.5313 118.341 63.6007 118.087 63.7396C117.832 63.8784 117.62 64.1098 117.45 64.4377C117.28 64.7655 117.196 65.2052 117.196 65.7644V68.7844H116.764V63.2497H117.196V64.1445C117.242 64.0057 117.338 63.8553 117.489 63.6894C117.639 63.5236 117.84 63.3847 118.09 63.2652C118.341 63.1456 118.63 63.0877 118.958 63.0877C119.286 63.0877 119.583 63.1726 119.811 63.3423C120.038 63.512 120.212 63.7087 120.331 63.9324C120.451 64.1561 120.524 64.3567 120.54 64.5264C120.605 64.3027 120.729 64.079 120.902 63.8591C121.076 63.6393 121.296 63.4541 121.562 63.3114C121.828 63.1649 122.132 63.0916 122.476 63.0916L122.472 63.0762Z" fill="black" fill-opacity="0.7"/>
<path d="M130.953 59.8701H131.385V68.7718H130.953V59.8701Z" fill="black" fill-opacity="0.7"/>
<path d="M134.636 71.5768H134.197V63.2382H134.656V64.4724C134.675 64.3181 134.779 64.133 134.972 63.9131C135.165 63.6933 135.431 63.4966 135.77 63.3307C136.11 63.1649 136.503 63.0762 136.954 63.0762C137.448 63.0762 137.899 63.188 138.304 63.4156C138.709 63.6431 139.037 63.9748 139.284 64.4107C139.531 64.8465 139.65 65.3787 139.65 66.0074C139.65 66.6361 139.527 67.1683 139.284 67.6042C139.037 68.04 138.713 68.3717 138.304 68.5954C137.896 68.8191 137.448 68.931 136.954 68.931C136.503 68.931 136.11 68.8422 135.763 68.6687C135.416 68.4951 135.149 68.2946 134.953 68.0747C134.756 67.8549 134.652 67.6775 134.633 67.5425V71.5729L134.636 71.5768ZM139.215 66.0074C139.215 65.4867 139.11 65.0393 138.902 64.6652C138.694 64.2911 138.42 64.0057 138.085 63.8051C137.749 63.6046 137.39 63.5043 137.001 63.5043C136.573 63.5043 136.183 63.6084 135.824 63.8128C135.466 64.0173 135.184 64.3065 134.972 64.6806C134.76 65.0548 134.656 65.4983 134.656 66.0074C134.656 66.5165 134.76 66.9639 134.972 67.3342C135.184 67.7083 135.466 67.9937 135.824 68.1981C136.183 68.3987 136.573 68.5028 137.001 68.5028C137.386 68.5028 137.749 68.4026 138.085 68.2059C138.42 68.0091 138.69 67.7237 138.902 67.3496C139.114 66.9755 139.215 66.5281 139.215 66.0074Z" fill="black" fill-opacity="0.7"/>
<path d="M143.422 63.0762C143.65 63.0762 143.87 63.1032 144.078 63.161C144.286 63.2189 144.468 63.2883 144.63 63.3693C144.792 63.4503 144.919 63.5313 145.008 63.6084L144.718 63.9594C144.618 63.863 144.452 63.7666 144.221 63.6624C143.985 63.5583 143.723 63.5081 143.426 63.5081C143.029 63.5081 142.693 63.593 142.412 63.7627C142.13 63.9324 141.991 64.1792 141.991 64.4994C141.991 64.8195 142.13 65.0548 142.412 65.236C142.693 65.4173 143.056 65.5677 143.499 65.6834C143.831 65.7683 144.128 65.8724 144.387 65.9958C144.645 66.1193 144.849 66.2851 144.996 66.4895C145.143 66.6939 145.22 66.9639 145.22 67.3033C145.22 67.5733 145.166 67.8086 145.058 68.013C144.95 68.2174 144.799 68.3871 144.61 68.5221C144.417 68.6571 144.198 68.7612 143.947 68.8307C143.696 68.9001 143.426 68.9348 143.137 68.9348C142.848 68.9348 142.605 68.904 142.366 68.8384C142.126 68.7728 141.914 68.6918 141.737 68.5993C141.556 68.5067 141.417 68.4141 141.32 68.3293L141.629 67.932C141.745 68.0593 141.937 68.1866 142.207 68.3138C142.477 68.4411 142.798 68.5067 143.172 68.5067C143.627 68.5067 144.005 68.3948 144.306 68.1711C144.606 67.9474 144.757 67.6582 144.757 67.3033C144.757 67.0372 144.684 66.8251 144.541 66.6708C144.398 66.5127 144.209 66.3893 143.982 66.2967C143.754 66.2041 143.511 66.127 143.26 66.0653C143.017 66.0036 142.794 65.9264 142.582 65.8416C142.369 65.7567 142.188 65.6526 142.034 65.5292C141.876 65.4057 141.752 65.2592 141.667 65.0856C141.579 64.9159 141.536 64.7154 141.536 64.4917C141.536 64.214 141.621 63.9671 141.791 63.755C141.961 63.5429 142.192 63.377 142.477 63.2574C142.767 63.1379 143.083 63.0762 143.426 63.0762H143.422Z" fill="black" fill-opacity="0.7"/>
<path d="M147.858 66.2148C147.858 66.9167 148.016 67.4721 148.332 67.8848C148.648 68.2975 149.119 68.5019 149.744 68.5019C150.368 68.5019 150.839 68.2975 151.155 67.8848C151.472 67.4721 151.63 66.9167 151.63 66.2148V63.2334H152.062V66.3266C152.062 66.8203 151.973 67.2639 151.792 67.6573C151.61 68.0507 151.348 68.3592 151.005 68.5868C150.662 68.8143 150.241 68.9262 149.74 68.9262C149.238 68.9262 148.826 68.8143 148.479 68.5868C148.131 68.3592 147.869 68.0507 147.688 67.6573C147.507 67.2639 147.418 66.8203 147.418 66.3266V63.2334H147.85V66.2148H147.858Z" fill="black" fill-opacity="0.7"/>
<path d="M160.431 63.0762C160.836 63.0762 161.172 63.1687 161.438 63.35C161.704 63.5313 161.905 63.809 162.04 64.1754C162.171 64.5457 162.24 65.0123 162.24 65.5793V68.7767H161.808V65.7567C161.808 64.9738 161.704 64.4068 161.496 64.0558C161.288 63.7048 160.921 63.5274 160.401 63.5274C160.146 63.5274 159.884 63.6007 159.621 63.7473C159.359 63.8938 159.139 64.1291 158.962 64.4569C158.784 64.7848 158.696 65.2168 158.696 65.7606V68.7805H158.264V65.7606C158.264 64.9776 158.129 64.4107 157.855 64.0597C157.581 63.7087 157.238 63.5313 156.821 63.5313C156.559 63.5313 156.301 63.6007 156.046 63.7396C155.792 63.8784 155.579 64.1098 155.41 64.4377C155.24 64.7655 155.155 65.2052 155.155 65.7644V68.7844H154.723V63.2497H155.155V64.1445C155.201 64.0057 155.298 63.8553 155.448 63.6894C155.599 63.5236 155.799 63.3847 156.05 63.2652C156.301 63.1456 156.59 63.0877 156.918 63.0877C157.246 63.0877 157.543 63.1726 157.77 63.3423C157.998 63.512 158.171 63.7087 158.291 63.9324C158.41 64.1561 158.484 64.3567 158.499 64.5264C158.565 64.3027 158.688 64.079 158.862 63.8591C159.035 63.6393 159.255 63.4541 159.521 63.3114C159.787 63.1649 160.092 63.0916 160.435 63.0916L160.431 63.0762Z" fill="black" fill-opacity="0.7"/>
<path d="M168.72 59.8701H170.332C171.281 59.8701 172.056 60.0591 172.658 60.4409C173.259 60.8228 173.703 61.3473 173.988 62.0146C174.274 62.6857 174.416 63.4493 174.416 64.3133C174.416 65.1772 174.274 65.9486 173.992 66.6197C173.711 67.2908 173.267 67.8153 172.665 68.1972C172.064 68.579 171.285 68.7718 170.332 68.7718H168.72V59.8701ZM169.132 60.3021V68.3399H170.305C171.169 68.3399 171.871 68.1702 172.407 67.8269C172.943 67.4836 173.344 67.0131 173.599 66.4114C173.853 65.8097 173.981 65.1155 173.984 64.3287C173.988 63.5419 173.865 62.8476 173.614 62.2421C173.363 61.6366 172.966 61.1622 172.422 60.8189C171.879 60.4757 171.173 60.3021 170.305 60.3021H169.132Z" fill="black" fill-opacity="0.7"/>
<path d="M179.056 68.9348C178.516 68.9348 178.038 68.8037 177.622 68.5453C177.205 68.283 176.877 67.9359 176.638 67.4923C176.399 67.0526 176.279 66.5628 176.279 66.0228C176.279 65.4829 176.399 64.9892 176.638 64.5418C176.877 64.0944 177.205 63.7396 177.622 63.4734C178.038 63.2073 178.52 63.0762 179.056 63.0762C179.592 63.0762 180.074 63.2073 180.487 63.4734C180.9 63.7396 181.228 64.0944 181.467 64.5418C181.706 64.9892 181.822 65.4829 181.822 66.0228C181.822 66.5628 181.702 67.0526 181.467 67.4923C181.232 67.932 180.904 68.283 180.487 68.5453C180.071 68.8075 179.592 68.9348 179.056 68.9348ZM179.056 68.5028C179.523 68.5028 179.932 68.3948 180.283 68.175C180.634 67.959 180.904 67.662 181.1 67.2841C181.293 66.9099 181.39 66.4857 181.39 66.019C181.39 65.5523 181.293 65.128 181.1 64.7462C180.908 64.3682 180.634 64.0635 180.283 63.8398C179.932 63.6161 179.523 63.5043 179.056 63.5043C178.59 63.5043 178.177 63.6161 177.826 63.8398C177.471 64.0635 177.197 64.3682 177.004 64.7462C176.808 65.128 176.711 65.5484 176.711 66.019C176.711 66.4895 176.808 66.9099 177.004 67.2841C177.201 67.6582 177.475 67.9552 177.826 68.175C178.181 68.3948 178.59 68.5028 179.056 68.5028Z" fill="black" fill-opacity="0.7"/>
<path d="M184.491 68.7719H184.047V59.4922H184.491V68.7719Z" fill="black" fill-opacity="0.7"/>
<path d="M189.485 68.9348C188.946 68.9348 188.467 68.8037 188.051 68.5453C187.634 68.283 187.306 67.9359 187.067 67.4923C186.828 67.0526 186.708 66.5628 186.708 66.0228C186.708 65.4829 186.828 64.9892 187.067 64.5418C187.306 64.0944 187.634 63.7396 188.051 63.4734C188.467 63.2073 188.949 63.0762 189.485 63.0762C190.022 63.0762 190.504 63.2073 190.916 63.4734C191.329 63.7396 191.657 64.0944 191.896 64.5418C192.131 64.9892 192.251 65.4829 192.251 66.0228C192.251 66.5628 192.131 67.0526 191.896 67.4923C191.661 67.932 191.333 68.283 190.916 68.5453C190.5 68.8075 190.022 68.9348 189.485 68.9348ZM189.485 68.5028C189.952 68.5028 190.361 68.3948 190.712 68.175C191.063 67.959 191.333 67.662 191.53 67.2841C191.722 66.9099 191.819 66.4857 191.819 66.019C191.819 65.5523 191.722 65.128 191.53 64.7462C191.337 64.3682 191.063 64.0635 190.712 63.8398C190.361 63.6161 189.952 63.5043 189.485 63.5043C189.019 63.5043 188.606 63.6161 188.255 63.8398C187.904 64.0635 187.63 64.3682 187.434 64.7462C187.237 65.128 187.14 65.5484 187.14 66.019C187.14 66.4895 187.237 66.9099 187.434 67.2841C187.63 67.6582 187.904 67.9552 188.255 68.175C188.61 68.3948 189.019 68.5028 189.485 68.5028Z" fill="black" fill-opacity="0.7"/>
<path d="M194.943 68.7718H194.526V63.2371H194.943V64.2746H194.908C194.924 64.1551 195.001 63.9969 195.147 63.808C195.294 63.619 195.494 63.4493 195.749 63.2988C196.004 63.1484 196.297 63.0713 196.628 63.0713C196.891 63.0713 197.11 63.1021 197.288 63.1677C197.469 63.2294 197.589 63.295 197.65 63.3567L197.442 63.7424C197.38 63.6923 197.269 63.6421 197.11 63.5881C196.952 63.5341 196.763 63.5071 196.536 63.5071C196.22 63.5071 195.942 63.619 195.703 63.8427C195.464 64.0664 195.275 64.3364 195.14 64.6449C195.005 64.9535 194.939 65.2389 194.939 65.4934V68.7718H194.943Z" fill="black" fill-opacity="0.7"/>
<path d="M205.534 59.709C206.016 59.709 206.421 59.7668 206.753 59.8825C207.085 59.9983 207.339 60.1178 207.524 60.2451C207.709 60.3724 207.814 60.4534 207.841 60.4881L207.571 60.8661C207.505 60.8043 207.385 60.7156 207.22 60.5999C207.054 60.4842 206.834 60.3801 206.56 60.2875C206.286 60.195 205.951 60.1448 205.553 60.1448C204.917 60.1448 204.416 60.2837 204.049 60.5575C203.687 60.8313 203.502 61.2093 203.502 61.6914C203.502 62.0154 203.598 62.297 203.787 62.5361C203.98 62.7752 204.234 62.9912 204.554 63.1841C204.875 63.3769 205.229 63.562 205.615 63.7472C205.908 63.886 206.205 64.0403 206.51 64.2061C206.815 64.372 207.1 64.5687 207.362 64.7885C207.625 65.0122 207.837 65.2706 207.999 65.5676C208.161 65.8646 208.242 66.2117 208.242 66.6051C208.242 66.933 208.176 67.2377 208.041 67.5231C207.91 67.8046 207.717 68.0553 207.466 68.2674C207.216 68.4796 206.919 68.6454 206.568 68.7611C206.221 68.8768 205.831 68.9347 205.399 68.9347C204.913 68.9347 204.47 68.8691 204.072 68.738C203.675 68.6069 203.351 68.4757 203.104 68.3369C202.857 68.198 202.726 68.1209 202.703 68.1055L203.008 67.7082C203.066 67.7545 203.162 67.8201 203.293 67.9088C203.424 67.9975 203.594 68.0862 203.795 68.1787C203.995 68.2713 204.234 68.3484 204.508 68.4102C204.782 68.4719 205.091 68.5027 205.43 68.5027C206.194 68.5027 206.776 68.3214 207.173 67.955C207.571 67.5886 207.771 67.1297 207.771 66.5743C207.771 66.1423 207.644 65.7759 207.385 65.4712C207.127 65.1665 206.807 64.9042 206.425 64.6805C206.039 64.4568 205.65 64.2486 205.256 64.0596C204.84 63.8513 204.462 63.6392 204.122 63.4232C203.787 63.2072 203.517 62.9565 203.32 62.6749C203.124 62.3934 203.023 62.0617 203.023 61.6721C203.023 61.2826 203.131 60.9625 203.347 60.6694C203.563 60.3724 203.86 60.1371 204.238 59.9674C204.616 59.7977 205.044 59.7128 205.519 59.7128L205.534 59.709Z" fill="black" fill-opacity="0.7"/>
<path d="M210.914 60.6997C210.795 60.6997 210.691 60.6573 210.606 60.5724C210.521 60.4876 210.479 60.3834 210.479 60.2639C210.479 60.1443 210.521 60.0324 210.61 59.9476C210.698 59.8627 210.799 59.8203 210.914 59.8203C210.995 59.8203 211.069 59.8396 211.142 59.882C211.211 59.9206 211.269 59.9746 211.312 60.0402C211.354 60.1057 211.377 60.179 211.377 60.2677C211.377 60.3873 211.331 60.4914 211.242 60.5763C211.153 60.6611 211.045 60.7035 210.918 60.7035L210.914 60.6997ZM210.691 68.7722V63.2375H211.123V68.7722H210.691Z" fill="black" fill-opacity="0.7"/>
<path d="M213.436 63.2375H214.644V60.9658H215.076V63.2375H216.653V63.6695H215.076V67.4107C215.076 67.8195 215.153 68.1049 215.303 68.2631C215.454 68.4212 215.635 68.5022 215.843 68.5022C216.051 68.5022 216.213 68.4675 216.314 68.3942C216.414 68.3209 216.48 68.2746 216.495 68.2515L216.757 68.6102C216.734 68.6333 216.684 68.6719 216.611 68.7259C216.534 68.7799 216.433 68.83 216.302 68.8725C216.171 68.9149 216.017 68.938 215.828 68.938C215.5 68.938 215.218 68.8262 214.987 68.6025C214.756 68.3788 214.64 68.0201 214.64 67.5187V63.6695H213.433V63.2375H213.436Z" fill="black" fill-opacity="0.7"/>
<path d="M225.115 59.8701H225.636L228.737 68.7718H228.286L227.414 66.3304H223.333L222.45 68.7718H221.991L225.111 59.8701H225.115ZM223.449 65.8985H227.306L225.385 60.4294H225.366L223.453 65.8985H223.449Z" fill="black" fill-opacity="0.7"/>
<path d="M236.312 63.0762C236.717 63.0762 237.052 63.1687 237.318 63.35C237.584 63.5313 237.785 63.809 237.92 64.1754C238.051 64.5457 238.121 65.0123 238.121 65.5793V68.7767H237.689V65.7567C237.689 64.9738 237.585 64.4068 237.376 64.0558C237.168 63.7048 236.802 63.5274 236.281 63.5274C236.022 63.5274 235.764 63.6007 235.502 63.7473C235.239 63.8938 235.02 64.1291 234.842 64.4569C234.665 64.7848 234.576 65.2168 234.576 65.7606V68.7805H234.144V65.7606C234.144 64.9776 234.009 64.4107 233.735 64.0597C233.461 63.7087 233.118 63.5313 232.702 63.5313C232.439 63.5313 232.181 63.6007 231.926 63.7396C231.672 63.8784 231.46 64.1098 231.29 64.4377C231.12 64.7655 231.035 65.2052 231.035 65.7644V68.7844H230.604V63.2497H231.035V64.1445C231.082 64.0057 231.178 63.8553 231.329 63.6894C231.479 63.5236 231.68 63.3847 231.93 63.2652C232.181 63.1456 232.466 63.0877 232.798 63.0877C233.13 63.0877 233.423 63.1726 233.65 63.3423C233.878 63.512 234.052 63.7087 234.175 63.9324C234.295 64.1561 234.368 64.3567 234.383 64.5264C234.453 64.3027 234.572 64.079 234.746 63.8591C234.919 63.6393 235.139 63.4541 235.405 63.3114C235.671 63.1649 235.976 63.0916 236.319 63.0916L236.312 63.0762Z" fill="black" fill-opacity="0.7"/>
<path d="M240.778 65.9687C240.778 66.4046 240.859 66.8173 241.021 67.2068C241.183 67.5964 241.43 67.9126 241.762 68.1556C242.093 68.3986 242.514 68.5182 243.023 68.5182C243.432 68.5182 243.767 68.4487 244.03 68.3099C244.292 68.171 244.5 68.009 244.651 67.8201C244.801 67.6349 244.905 67.4691 244.963 67.3302L245.36 67.6002C245.179 67.8933 244.978 68.1402 244.759 68.3369C244.539 68.5374 244.284 68.6879 243.999 68.7843C243.713 68.8846 243.378 68.9308 242.996 68.9308C242.417 68.9308 241.928 68.7959 241.526 68.522C241.125 68.2482 240.825 67.8856 240.62 67.4305C240.416 66.9754 240.315 66.474 240.315 65.9302C240.315 65.3864 240.42 64.9042 240.628 64.4723C240.836 64.0403 241.141 63.7009 241.538 63.4463C241.935 63.1956 242.417 63.0684 242.977 63.0684C243.474 63.0684 243.91 63.1841 244.28 63.4155C244.651 63.6469 244.94 63.9632 245.148 64.3643C245.356 64.7654 245.457 65.2205 245.457 65.7335C245.457 65.772 245.457 65.8145 245.449 65.853C245.445 65.8916 245.441 65.9302 245.441 65.9649H240.767L240.778 65.9687ZM244.986 65.5368C244.978 65.2436 244.909 64.9428 244.786 64.6265C244.662 64.3103 244.458 64.0442 244.168 63.8282C243.879 63.6122 243.486 63.5003 242.981 63.5003C242.448 63.5003 242.032 63.6045 241.723 63.8166C241.415 64.0287 241.191 64.291 241.056 64.6073C240.921 64.9235 240.836 65.2321 240.809 65.5368H244.982H244.986Z" fill="black" fill-opacity="0.7"/>
<path d="M247.142 63.2375H248.349V60.9658H248.781V63.2375H250.359V63.6695H248.781V67.4107C248.781 67.8195 248.858 68.1049 249.009 68.2631C249.159 68.4212 249.34 68.5022 249.549 68.5022C249.757 68.5022 249.919 68.4675 250.019 68.3942C250.12 68.3209 250.185 68.2746 250.201 68.2515L250.463 68.6102C250.44 68.6333 250.39 68.6719 250.316 68.7259C250.239 68.7799 250.139 68.83 250.008 68.8725C249.877 68.9149 249.722 68.938 249.533 68.938C249.205 68.938 248.924 68.8262 248.693 68.6025C248.461 68.3788 248.345 68.0201 248.345 67.5187V63.6695H247.138V63.2375H247.142Z" fill="black" fill-opacity="0.7"/>
<path d="M60.819 0H17.2205C8.17611 0 0.836426 7.33968 0.836426 16.3841V59.9864C0.836426 69.0308 8.17611 76.3705 17.2205 76.3705H60.8228C69.8672 76.3705 77.2069 69.0308 77.2069 59.9864V16.3841C77.2069 7.33968 69.8672 0 60.8228 0H60.819ZM42.7069 19.4735C42.5411 19.5468 42.3714 19.6895 42.1824 19.89C41.8353 20.3182 41.6579 20.9623 41.6579 21.8455V62.9639H25.1928C24.3558 62.9639 23.7117 62.8096 23.2604 62.4857C22.8053 62.1771 22.5816 61.722 22.5816 61.1357C22.5816 60.1831 23.0483 59.5621 23.9778 59.2497C24.7415 58.999 25.1966 58.8447 25.3277 58.783C25.4473 58.7252 25.59 58.594 25.7212 58.3781C26.0066 58.0078 26.1377 57.41 26.1377 56.6V21.6102C26.1377 20.8003 26.0066 20.2024 25.7212 19.8322C25.59 19.6162 25.4473 19.4851 25.3277 19.4272C25.1966 19.3694 24.7415 19.2112 23.9778 18.949C23.0483 18.652 22.5816 18.0194 22.5816 17.0629C22.5816 16.4767 22.8092 16.037 23.2604 15.713C23.7156 15.4045 24.3597 15.2463 25.1928 15.2463H42.8882C43.9142 15.2463 44.6431 15.3775 45.0828 15.6629C45.6922 16.0331 46.0007 16.523 46.0007 17.1324C46.0007 18.1583 45.4415 18.8024 44.3191 19.0531C43.4128 19.2691 42.8766 19.4002 42.7069 19.4696V19.4735ZM57.8491 62.9678H44.4965V59.053C45.6305 58.837 46.5368 58.6133 47.2041 58.3472C47.8598 58.0965 48.4923 57.7147 49.1017 57.2248C50.0813 56.4612 50.9761 55.4005 51.7977 54.0506C52.6076 52.6891 53.2787 51.1849 53.7917 49.5419C54.1619 48.2537 54.5091 47.4167 54.8176 47.0002C55.1416 46.5952 55.5929 46.3908 56.2022 46.3908C56.8579 46.3908 57.3362 46.6646 57.6332 47.1892C57.7759 47.4515 57.8491 47.9644 57.8491 48.7281V62.9639V62.9678Z" fill="black" fill-opacity="0.7"/>
</svg>
