<svg width="26" height="26" viewBox="0 0 26 26" fill="none" xmlns="http://www.w3.org/2000/svg">
<path d="M6.50047 6.63853L6.5 17.0625C6.5 19.2164 8.17625 20.9788 10.2954 21.1164L10.5625 21.125L17.7359 21.1261C17.401 22.0723 16.4984 22.75 15.4375 22.75H9.75C7.05761 22.75 4.875 20.5674 4.875 17.875V8.9375C4.875 7.87602 5.55351 6.97301 6.50047 6.63853ZM18.6875 3.25C20.0337 3.25 21.125 4.34131 21.125 5.6875V17.0625C21.125 18.4087 20.0337 19.5 18.6875 19.5H10.5625C9.21631 19.5 8.125 18.4087 8.125 17.0625V5.6875C8.125 4.34131 9.21631 3.25 10.5625 3.25H18.6875ZM18.6875 4.875H10.5625C10.1138 4.875 9.75 5.23877 9.75 5.6875V17.0625C9.75 17.5112 10.1138 17.875 10.5625 17.875H18.6875C19.1362 17.875 19.5 17.5112 19.5 17.0625V5.6875C19.5 5.23877 19.1362 4.875 18.6875 4.875Z" fill="#212121"/>
</svg>
