<svg width="20" height="20" viewBox="0 0 20 20" fill="none" xmlns="http://www.w3.org/2000/svg">
<g clip-path="url(#clip0_68_1220)">
<path d="M10 19.707C15.361 19.707 19.707 15.361 19.707 10C19.707 4.63895 15.361 0.292969 10 0.292969C4.63895 0.292969 0.292969 4.63895 0.292969 10C0.292969 15.361 4.63895 19.707 10 19.707Z" fill="#4956FC"/>
<path d="M10 17.7539C14.2824 17.7539 17.7539 14.2824 17.7539 10C17.7539 5.71764 14.2824 2.24609 10 2.24609C5.71764 2.24609 2.24609 5.71764 2.24609 10C2.24609 14.2824 5.71764 17.7539 10 17.7539Z" fill="#5E8DF7"/>
<path d="M13.6484 9.53593L13.0414 9.88046L9.95508 11.0453L6.35156 9.53593L9.95508 3.36093L13.6484 9.53593Z" fill="#FEFEFE"/>
<path d="M13.6484 9.53594L9.95508 11.6313L6.35156 9.53594L9.95508 7.85352L13.6484 9.53594Z" fill="#C0CBF8"/>
<path d="M13.6484 11.0094L9.95508 16.6391L6.35156 11.0094L9.95508 13.1043L13.6484 11.0094Z" fill="#FEFEFE"/>
<path d="M13.6484 11.0094L9.95508 16.6391V13.1043L13.6484 11.0094ZM13.6484 9.53593L13.0414 9.88046L9.95508 8.11562V3.36093L13.6484 9.53593Z" fill="#C0CBF8"/>
<path d="M13.6484 9.53594L9.95508 11.6313V7.85352L13.6484 9.53594Z" fill="#8095F0"/>
</g>
<defs>
<clipPath id="clip0_68_1220">
<rect width="20" height="20" fill="white"/>
</clipPath>
</defs>
</svg>
