<svg width="30"
     height="30"
     viewBox="0 0 30 30"
     fill="none"
     xmlns="http://www.w3.org/2000/svg">
    <path d="M15 30C23.2843 30 30 23.2843 30 15C30 6.71573 23.2843 0 15 0C6.71573 0 0 6.71573 0 15C0 23.2843 6.71573 30 15 30Z"
          fill="url(#paint0_linear_3_21)" />
    <path d="M29.5717 18.5742C28.1402 24.4336 23.2676 28.9453 17.2172 29.8389L9.6 22.2217L21.1822 10.183L29.5717 18.5742Z"
          fill="url(#paint1_linear_3_21)" />
    <path d="M15 7.68633C10.6313 7.68633 7.08984 10.6576 7.08984 14.3232C7.08984 16.152 7.97168 17.8078 9.39785 19.0078V21.8232C9.39781 21.909 9.42031 21.9933 9.46309 22.0676C9.50588 22.1419 9.56745 22.2037 9.64164 22.2467C9.71583 22.2897 9.80002 22.3125 9.88578 22.3128C9.97154 22.313 10.0559 22.2907 10.1303 22.248L12.8256 20.7047C13.5379 20.8746 14.2677 20.9601 15 20.9596C19.3687 20.9596 22.9102 17.9883 22.9102 14.3232C22.9102 10.6582 19.3687 7.68633 15 7.68633Z"
          fill="white" />
    <defs>
        <linearGradient id="paint0_linear_3_21"
                        x1="4.39336"
                        y1="4.39336"
                        x2="25.6066"
                        y2="25.6066"
                        gradientUnits="userSpaceOnUse">
            <stop stop-color="#21D1F7" />
            <stop offset="1"
                  stop-color="#2196F3" />
        </linearGradient>
        <linearGradient id="paint1_linear_3_21"
                        x1="8.52868"
                        y1="9.01181"
                        x2="23.6725"
                        y2="23.9171"
                        gradientUnits="userSpaceOnUse">
            <stop stop-color="#186EB3" />
            <stop offset="0.93"
                  stop-color="#186EB3"
                  stop-opacity="0" />
        </linearGradient>
    </defs>
</svg>