<svg width="15" height="15" viewBox="0 0 15 15" fill="none" xmlns="http://www.w3.org/2000/svg">
<path d="M14.414 10.8691C14.7376 10.8691 15 10.6068 15 10.2832V7.58788C15 6.61862 14.2114 5.83007 13.2422 5.83007H12.0996V3.51562C12.0996 2.22328 11.0482 1.17187 9.75584 1.17187H8.36328C8.25224 0.830875 8.03606 0.533803 7.74574 0.323274C7.45542 0.112744 7.10588 -0.000424591 6.74726 1.1971e-06H5.99685C5.63823 -0.000424591 5.28869 0.112744 4.99837 0.323274C4.70805 0.533803 4.49187 0.830875 4.38084 1.17187H2.98828C1.69594 1.17187 0.644531 2.22328 0.644531 3.51562V12.6562C0.644531 13.9486 1.69594 15 2.98828 15H5.5664C5.89001 15 6.15233 14.7376 6.15233 14.414C6.15233 14.0904 5.89001 13.8281 5.5664 13.8281H2.98828C2.34211 13.8281 1.8164 13.3024 1.8164 12.6562V3.51562C1.8164 2.86945 2.34211 2.34375 2.98828 2.34375H3.04687V4.07226C3.04687 4.39587 3.30919 4.6582 3.63281 4.6582H9.1699C9.49352 4.6582 9.75584 4.39587 9.75584 4.07226V2.34375C10.402 2.34375 10.9277 2.86945 10.9277 3.51562V5.83007H9.02322C8.05411 5.83007 7.26561 6.61853 7.26561 7.58767V13.2424C7.26561 14.2115 8.05417 15 9.02372 15L13.2422 14.9978C14.2114 14.9978 15 14.2093 15 13.2402C15 12.9166 14.7376 12.6543 14.414 12.6543C14.0904 12.6543 13.8281 12.9166 13.8281 13.2402C13.8281 13.5632 13.5652 13.8259 13.2419 13.8259L9.02342 13.8281C8.70034 13.8281 8.43748 13.5653 8.43748 13.2424V7.58767C8.43748 7.2647 8.70025 7.00194 9.02322 7.00194H13.2422C13.5652 7.00194 13.8281 7.26479 13.8281 7.58788V10.2832C13.8281 10.6068 14.0905 10.8691 14.414 10.8691ZM8.58397 3.48632H4.21874V2.34375H4.83398C4.96465 2.34375 5.09157 2.30007 5.19457 2.21965C5.29757 2.13924 5.37073 2.0267 5.40242 1.89993L5.4844 1.57198C5.51285 1.45763 5.57877 1.3561 5.67165 1.28358C5.76453 1.21107 5.87902 1.17174 5.99685 1.17187H6.74726C6.8651 1.17174 6.97959 1.21107 7.07246 1.28359C7.16534 1.35611 7.23127 1.45763 7.25972 1.57198L7.3417 1.89993C7.37339 2.0267 7.44655 2.13924 7.54955 2.21965C7.65255 2.30007 7.77947 2.34375 7.91014 2.34375H8.58397V3.48632Z" fill="#232323"/>
<path d="M12.0703 8.17381H10.1953C9.87168 8.17381 9.60936 8.43614 9.60936 8.75975C9.60936 9.08336 9.87168 9.34569 10.1953 9.34569H12.0703C12.3939 9.34569 12.6562 9.08336 12.6562 8.75975C12.6562 8.43614 12.3939 8.17381 12.0703 8.17381ZM12.0703 10.2246H10.1953C9.87168 10.2246 9.60936 10.4869 9.60936 10.8105C9.60936 11.1341 9.87168 11.3965 10.1953 11.3965H12.0703C12.3939 11.3965 12.6562 11.1341 12.6562 10.8105C12.6562 10.4869 12.3939 10.2246 12.0703 10.2246Z" fill="#232323"/>
</svg>
