<svg width="46"
     height="46"
     viewBox="0 0 46 46"
     fill="none"
     xmlns="http://www.w3.org/2000/svg">
    <circle cx="23"
            cy="23"
            r="23"
            fill="black" />
    <path d="M34.0152 29.2515C33.3515 28.5877 31.2591 27.0428 29.1816 25.8466C29.1591 25.8804 29.1366 25.9141 29.1141 25.9516C31.4578 22.1755 30.9966 17.1469 27.7154 13.8658C23.8906 10.0447 17.6921 10.0447 13.8672 13.8658C10.0424 17.6944 10.0461 23.8892 13.8672 27.714C17.1184 30.9614 22.0794 31.4526 25.8443 29.1802C26.928 31.0627 28.5067 33.2713 29.2529 34.0175C30.5653 35.33 32.7027 35.3262 34.0152 34.0138C35.3276 32.6976 35.3276 30.5677 34.0152 29.2515ZM25.1355 25.1341C22.7356 27.5303 18.8508 27.5303 16.4509 25.1304C14.0547 22.7342 14.051 18.8494 16.4509 16.4495C18.847 14.0533 22.7356 14.0533 25.1318 16.4495C27.5317 18.8494 27.5317 22.738 25.1355 25.1341Z"
          fill="white" />
</svg>