<svg width="46"
     height="46"
     viewBox="0 0 46 46"
     fill="none"
     xmlns="http://www.w3.org/2000/svg">
    <circle cx="23"
            cy="23"
            r="23"
            fill="black" />
    <path d="M35.3129 30.7064C35.4269 30.6172 35.518 30.502 35.5786 30.3705C35.6392 30.239 35.6675 30.0949 35.6612 29.9503C35.6163 27.7127 34.4725 25.0119 34.039 23.59C34.1838 23.5662 34.3214 23.51 34.4414 23.4256C34.5614 23.3412 34.6609 23.2308 34.7322 23.1025C34.8036 22.9743 34.8451 22.8316 34.8536 22.6852C34.8621 22.5387 34.8374 22.3921 34.7814 22.2565L32.8293 17.6788C32.9551 17.6343 33.0685 17.5604 33.1598 17.4631C33.2511 17.3658 33.3178 17.248 33.3541 17.1196C33.3905 16.9912 33.3955 16.8559 33.3688 16.7252C33.342 16.5944 33.2843 16.472 33.2005 16.3682C31.9716 14.9287 30.3983 13.8236 28.6273 13.156C28.9182 12.3023 27.4592 11.7341 26.1253 11.3918C23.9583 10.8694 21.6983 10.8694 19.5313 11.3918C18.1914 11.7309 16.7484 12.3087 17.0339 13.156C15.2629 13.8236 13.6896 14.9287 12.4607 16.3682C12.3782 16.4725 12.3216 16.5949 12.2956 16.7253C12.2696 16.8557 12.2749 16.9904 12.3112 17.1184C12.3474 17.2464 12.4135 17.3639 12.5041 17.4613C12.5946 17.5587 12.707 17.6333 12.8319 17.6788L10.8798 22.2565C10.8237 22.3921 10.7989 22.5387 10.8074 22.6852C10.8159 22.8317 10.8573 22.9744 10.9287 23.1027C11.0001 23.2309 11.0996 23.3414 11.2196 23.4257C11.3397 23.5101 11.4773 23.5663 11.6222 23.59C11.6405 23.5946 11.6543 23.6037 11.6634 23.6587C11.0815 25.0563 10.0917 27.7278 10 29.9503C9.99896 30.0965 10.0311 30.2411 10.094 30.3732C10.1569 30.5052 10.249 30.6213 10.3632 30.7126C10.4775 30.8039 10.611 30.8681 10.7536 30.9004C10.8963 30.9326 11.0444 30.9321 11.1869 30.8988L10.9257 31.467C10.8369 31.6672 10.8102 31.8894 10.8489 32.105C10.8877 32.3205 10.99 32.5195 11.1429 32.6763C11.2957 32.8331 11.4921 32.9405 11.7065 32.9847C11.921 33.0289 12.1438 33.0078 12.3462 32.9242L12.8365 32.7134C12.8686 32.6981 12.9049 32.6938 12.9397 32.7013C12.9746 32.7088 13.0059 32.7275 13.029 32.7547C13.0549 32.7786 13.0722 32.8106 13.078 32.8454C13.0838 32.8803 13.0778 32.9161 13.061 32.9471C12.9774 33.1285 12.9448 33.3292 12.9666 33.5277C12.9885 33.7261 13.064 33.9149 13.1851 34.0737C13.3062 34.2325 13.4683 34.3553 13.6539 34.4289C13.8395 34.5025 14.0417 34.5241 14.2387 34.4914L15.7875 34.2119C15.7952 34.3274 15.8275 34.4399 15.8823 34.5419C15.937 34.644 16.0129 34.7331 16.1049 34.8034C16.1969 34.8737 16.3028 34.9235 16.4156 34.9495C16.5284 34.9755 16.6455 34.9771 16.759 34.9542L19.1464 34.4502C19.256 34.4271 19.3694 34.4291 19.4781 34.4561C19.5869 34.4831 19.6881 34.5343 19.7742 34.606C20.0017 34.8011 20.2784 34.93 20.5742 34.9785C20.87 35.027 21.1734 34.9932 21.4513 34.8809C22.337 34.5281 23.3242 34.5281 24.2099 34.8809C24.4879 34.9923 24.7912 35.0255 25.0868 34.9771C25.3824 34.9286 25.6591 34.8003 25.887 34.606C25.9737 34.5353 26.0749 34.4846 26.1834 34.4577C26.292 34.4307 26.4052 34.4282 26.5148 34.4502L28.9022 34.9542C29.0157 34.977 29.1327 34.9753 29.2454 34.9492C29.3582 34.9231 29.4641 34.8733 29.556 34.803C29.648 34.7327 29.7239 34.6437 29.7787 34.5417C29.8334 34.4398 29.8658 34.3273 29.8737 34.2119L31.4225 34.4914C31.6194 34.5237 31.8214 34.5019 32.0069 34.4282C32.1923 34.3545 32.3543 34.2318 32.4753 34.0731C32.5963 33.9144 32.6718 33.7258 32.6938 33.5274C32.7158 33.3291 32.6835 33.1285 32.6002 32.9471C32.5834 32.9161 32.5774 32.8803 32.5832 32.8454C32.589 32.8106 32.6063 32.7786 32.6322 32.7547C32.6553 32.7275 32.6866 32.7088 32.7214 32.7013C32.7563 32.6938 32.7926 32.6981 32.8247 32.7134L33.315 32.9242C33.5174 33.0078 33.7402 33.0289 33.9547 32.9847C34.1691 32.9405 34.3654 32.8331 34.5183 32.6763C34.6712 32.5195 34.7735 32.3205 34.8123 32.105C34.851 31.8894 34.8243 31.6672 34.7355 31.467L34.4881 30.8805C34.6295 30.9192 34.7781 30.9236 34.9216 30.8933C35.0651 30.8631 35.1992 30.799 35.3129 30.7064ZM25.9603 27.0176C25.8152 27.3857 25.621 27.7325 25.383 28.0486L23.6829 31.9894C23.6101 32.1549 23.4908 32.2955 23.3395 32.3943C23.1881 32.4931 23.0113 32.5456 22.8306 32.5456C22.6499 32.5456 22.4731 32.4931 22.3217 32.3943C22.1704 32.2955 22.051 32.1549 21.9783 31.9894L20.2782 28.0486C19.8289 27.4233 19.5323 26.7014 19.4122 25.9407C18.4819 25.2113 17.3086 24.8639 16.1312 24.9693C16.0118 24.9717 15.8961 24.9272 15.8091 24.8453C15.7221 24.7634 15.6707 24.6507 15.6659 24.5313C15.6611 24.4119 15.7033 24.2954 15.7834 24.2068C15.8636 24.1182 15.9753 24.0646 16.0945 24.0574C17.2353 23.9848 18.3728 24.2426 19.3709 24.7997C19.4809 23.0813 20.0445 19.2093 22.8123 19.0901C25.6212 19.2093 26.1803 23.0859 26.2903 24.7997C27.2881 24.242 28.4258 23.9842 29.5666 24.0574C29.6859 24.0646 29.7976 24.1182 29.8777 24.2068C29.9579 24.2954 30.0001 24.4119 29.9953 24.5313C29.9905 24.6507 29.9391 24.7634 29.8521 24.8453C29.7651 24.9272 29.6494 24.9717 29.53 24.9693C28.3535 24.8655 27.1813 25.211 26.249 25.9362C26.1978 26.3072 26.1008 26.6704 25.9603 27.0176ZM14.477 18.5861C14.5052 18.533 14.5436 18.4861 14.59 18.4479C14.6364 18.4098 14.6898 18.3812 14.7473 18.3637C14.8048 18.3463 14.8651 18.3403 14.9249 18.3462C14.9846 18.3521 15.0427 18.3698 15.0956 18.3982C15.0956 18.3982 18.6112 20.2953 19.3114 20.6756C19.4183 20.7333 19.4979 20.8312 19.5327 20.9476C19.5675 21.0641 19.5547 21.1896 19.4969 21.2965C19.4392 21.4035 19.3414 21.4831 19.2249 21.5179C19.1085 21.5527 18.983 21.5398 18.876 21.4821L18.4132 21.2347C18.3323 21.6187 18.1221 21.9633 17.8177 22.211C17.5133 22.4587 17.1331 22.5945 16.7407 22.5956C16.4027 22.5916 16.0733 22.4889 15.793 22.3C15.5128 22.1111 15.2939 21.8444 15.1633 21.5326C15.0328 21.2209 14.9963 20.8778 15.0584 20.5456C15.1204 20.2133 15.2783 19.9065 15.5126 19.6629L14.6603 19.2047C14.6075 19.1763 14.5608 19.1377 14.523 19.0911C14.4851 19.0446 14.4569 18.991 14.4398 18.9335C14.4228 18.876 14.4173 18.8157 14.4237 18.7561C14.4301 18.6965 14.4482 18.6387 14.477 18.5861ZM31.0009 19.2047L30.1486 19.6629C30.3829 19.9065 30.5408 20.2133 30.6028 20.5456C30.6649 20.8778 30.6284 21.2209 30.4979 21.5326C30.3673 21.8444 30.1484 22.1111 29.8682 22.3C29.5879 22.4889 29.2585 22.5916 28.9205 22.5956C28.5281 22.5945 28.1479 22.4587 27.8435 22.211C27.5391 21.9633 27.3289 21.6187 27.248 21.2347L26.7852 21.4821C26.7322 21.5107 26.6741 21.5286 26.6143 21.5347C26.5544 21.5409 26.4939 21.5351 26.4363 21.5179C26.3786 21.5007 26.3249 21.4723 26.2782 21.4343C26.2316 21.3963 26.1928 21.3495 26.1643 21.2965C26.1357 21.2436 26.1178 21.1855 26.1117 21.1256C26.1055 21.0658 26.1112 21.0053 26.1285 20.9476C26.1457 20.89 26.1741 20.8363 26.2121 20.7896C26.2501 20.7429 26.2969 20.7042 26.3498 20.6756L30.5656 18.3982C30.6186 18.3696 30.6766 18.3517 30.7365 18.3456C30.7963 18.3394 30.8568 18.3452 30.9145 18.3624C30.9721 18.3796 31.0258 18.408 31.0725 18.446C31.1192 18.484 31.1579 18.5308 31.1865 18.5838C31.2151 18.6367 31.233 18.6948 31.2391 18.7547C31.2453 18.8145 31.2395 18.875 31.2223 18.9327C31.2051 18.9903 31.1767 19.044 31.1387 19.0907C31.1007 19.1374 31.0539 19.1761 31.0009 19.2047Z"
          fill="white" />
    <path d="M29.255 20.1486L28.137 20.7535C28.1135 20.901 28.1318 21.0521 28.1898 21.1898C28.2477 21.3274 28.343 21.4461 28.4649 21.5324C28.5868 21.6187 28.7304 21.6692 28.8794 21.6782C29.0285 21.6872 29.1771 21.6543 29.3085 21.5832C29.4398 21.5122 29.5487 21.4058 29.6228 21.2761C29.6968 21.1464 29.7331 20.9986 29.7276 20.8493C29.722 20.7001 29.6748 20.5554 29.5913 20.4316C29.5078 20.3077 29.3913 20.2097 29.255 20.1486ZM16.7407 21.6792C16.8559 21.6785 16.9696 21.6529 17.074 21.6042C17.1784 21.5554 17.271 21.4846 17.3455 21.3967C17.4199 21.3087 17.4745 21.2057 17.5053 21.0947C17.5362 20.9837 17.5426 20.8673 17.5242 20.7535L16.4061 20.1486C16.2417 20.2263 16.1084 20.3574 16.0281 20.5206C15.9478 20.6838 15.9253 20.8694 15.9641 21.0471C16.0029 21.2247 16.1009 21.384 16.2419 21.4988C16.383 21.6136 16.5588 21.6772 16.7407 21.6792ZM24.8606 22.0686C24.4894 20.9918 23.8662 20.0478 22.8123 20.0066C20.4615 20.0982 19.8878 25.3065 20.5486 26.6739C20.6897 27.0132 20.8729 27.3334 21.0939 27.627L22.8169 31.6274L24.5673 27.627C25.7431 26.0947 25.4819 24.1875 24.8606 22.0686ZM21.795 23.3013C21.7069 23.3013 21.6224 23.2663 21.5601 23.204C21.4978 23.1417 21.4628 23.0572 21.4628 22.9691C21.4628 22.881 21.4978 22.7965 21.5601 22.7342C21.6224 22.6719 21.7069 22.6369 21.795 22.6369C21.8831 22.6369 21.9676 22.6719 22.0299 22.7342C22.0922 22.7965 22.1272 22.881 22.1272 22.9691C22.1272 23.0572 22.0922 23.1417 22.0299 23.204C21.9676 23.2663 21.8831 23.3013 21.795 23.3013ZM23.8662 23.3013C23.7781 23.3013 23.6936 23.2663 23.6313 23.204C23.569 23.1417 23.534 23.0572 23.534 22.9691C23.534 22.881 23.569 22.7965 23.6313 22.7342C23.6936 22.6719 23.7781 22.6369 23.8662 22.6369C23.9543 22.6369 24.0388 22.6719 24.1011 22.7342C24.1634 22.7965 24.1984 22.881 24.1984 22.9691C24.1984 23.0572 24.1634 23.1417 24.1011 23.204C24.0388 23.2663 23.9543 23.3013 23.8662 23.3013Z"
          fill="white" />
</svg>